<svg width="171px" height="35px" viewBox="0 0 171 35" xmlns="http://www.w3.org/2000/svg"><g id="prefix__Bet-Boost-pt-BR" stroke="none" stroke-width="1" fill="none" fill-rule="evenodd"><g id="prefix__Aposta" transform="translate(0.105000, 11.770000)" fill="#28FFBB" fill-rule="nonzero"><path d="M7.665 10.23h2.775L6.675.225H3.84L0 10.23h2.745l.675-1.68h3.63l.615 1.68ZM4.14 6.57l1.095-3.24L6.36 6.57H4.14ZM15.825 6.915c.78 0 1.71-.105 2.49-.87.78-.765.885-1.695.885-2.49 0-.84-.15-1.68-.93-2.43-.765-.735-1.665-.9-2.535-.9h-4.14V10.23h2.595V6.915h1.635Zm-1.635-4.59h.885c.33 0 .81.045 1.11.36.27.27.3.63.3.9 0 .24-.015.645-.33.915-.315.285-.825.315-1.095.315h-.87v-2.49ZM31.17 5.235c0-1.335-.51-2.745-1.575-3.75C28.575.51 27.135 0 25.65 0c-1.485 0-2.925.51-3.945 1.485C20.64 2.49 20.13 3.9 20.13 5.235c0 1.32.51 2.715 1.575 3.735 1.02.975 2.46 1.485 3.945 1.485 1.485 0 2.925-.51 3.945-1.485 1.065-1.02 1.575-2.415 1.575-3.735ZM25.65 2.52c.69 0 1.455.27 2.01.795a2.7 2.7 0 0 1 .81 1.92c0 .765-.345 1.455-.81 1.92-.465.465-1.125.78-2.01.78-.87 0-1.545-.33-2.025-.795a2.543 2.543 0 0 1-.795-1.86c0-.705.255-1.44.795-1.965.54-.54 1.305-.795 2.025-.795Z" id="prefix__Shape"/><path d="M32.37 9.33c.72.495 1.35.735 1.515.795.735.27 1.335.33 1.965.33 1.065 0 2.1-.165 2.955-1.02.72-.72.945-1.605.945-2.52 0-.69-.135-1.245-.645-1.785-.525-.57-1.185-.795-1.815-.99l-.795-.24c-.615-.18-.795-.36-.87-.45-.105-.135-.135-.27-.135-.45 0-.225.105-.39.255-.54.255-.24.6-.3.855-.3.345 0 .93.06 1.71.675L39.345.81C38.4.315 37.245 0 36.255 0 35.04 0 34.2.435 33.69.945c-.435.435-.915 1.185-.915 2.415 0 .51.06 1.215.57 1.77.405.45 1.02.675 1.44.81l.675.21c.645.195 1.035.3 1.29.525.21.18.285.405.285.6 0 .255-.105.48-.255.63-.165.18-.48.345-1.005.345-.9 0-1.74-.495-2.295-1.02l-1.11 2.1ZM47.295 2.43V.225H40.44V2.43h2.13v7.8h2.595v-7.8z" id="prefix__Path"/><path d="M54.72 10.23h2.775L53.73.225h-2.835l-3.84 10.005H49.8l.675-1.68h3.63l.615 1.68Zm-3.525-3.66 1.095-3.24 1.125 3.24h-2.22Z" id="prefix__Shape"/></g><g id="prefix__AUMENTADA" transform="translate(61.105000, 11.995000)" fill="#FFFFFF" fill-rule="nonzero"><path d="M7.665 10.005h2.775L6.675 0H3.84L0 10.005h2.745l.675-1.68h3.63l.615 1.68ZM4.14 6.345l1.095-3.24 1.125 3.24H4.14Z" id="prefix__Shape"/><path d="M11.595 0v5.745c0 1.065.105 2.34.975 3.285.615.66 1.74 1.2 3.315 1.2 1.41 0 2.46-.39 3.3-1.245 1.08-1.095 1.125-2.19 1.125-3.24V0h-2.595v5.7c0 .555.015 1.29-.585 1.815-.285.255-.75.435-1.2.435-.45 0-.93-.195-1.23-.48-.495-.48-.51-1.125-.51-1.545V0h-2.595ZM24.54 10.005l.855-5.76 2.31 5.76h1.035l2.415-5.76.735 5.76h2.595L32.985 0H30.39l-2.145 5.34L26.22 0h-2.565L21.96 10.005zM41.82 0h-5.685v10.005h5.685V7.8h-3.09V6.075h2.925V3.87H38.73V2.205h3.09zM46.065 10.005v-6.12l4.785 6.12h2.595V0H50.85v6.12L46.065 0H43.47v10.005zM61.455 2.205V0H54.6v2.205h2.13v7.8h2.595v-7.8z" id="prefix__Path"/><path d="M68.88 10.005h2.775L67.89 0h-2.835l-3.84 10.005h2.745l.675-1.68h3.63l.615 1.68Zm-3.525-3.66 1.095-3.24 1.125 3.24h-2.22ZM76.44 10.005c1.71 0 3.045-.72 3.84-1.515.975-.975 1.305-2.145 1.305-3.465 0-1.08-.225-2.52-1.395-3.645C78.9.135 77.22 0 76.215 0H72.81v10.005h3.63Zm-1.035-7.8h.63c.645 0 1.455.06 2.07.63.495.465.78 1.26.78 2.19 0 1.11-.435 1.74-.765 2.055-.675.66-1.56.72-2.19.72h-.525V2.205ZM89.4 10.005h2.775L88.41 0h-2.835l-3.84 10.005h2.745l.675-1.68h3.63l.615 1.68Zm-3.525-3.66 1.095-3.24 1.125 3.24h-2.22Z" id="prefix__Shape"/></g><g id="prefix__Icons-/-Bet-Boost" transform="translate(157.000000, 12.000000)" fill="#28FFBB"><path d="m8.131 0 5.214 4.904L8.13 9.8H4.6l5.213-4.9L4.6 0H8.13Zm-4.6 0 5.214 4.904L3.532 9.8H0l5.214-4.9L0 0h3.532Z" id="prefix__Combined-Shape"/></g></g></svg>