<svg height="30" viewBox="0 0 30 30" width="30" xmlns="http://www.w3.org/2000/svg" xmlns:xlink="http://www.w3.org/1999/xlink"><radialGradient id="a" cx="4.79%" cy="50%" gradientTransform="matrix(.82459 0 0 1 .008 0)" r="119.227%"><stop offset="0" stop-color="#c7982a"/><stop offset=".50845" stop-color="#fbd24b"/><stop offset="1" stop-color="#c4a538"/></radialGradient><linearGradient id="b" x1="4.79%" x2="103.103%" y1="50%" y2="50%"><stop offset="0" stop-color="#c7982a"/><stop offset=".15497" stop-color="#c7982a"/><stop offset=".46056" stop-color="#ffd64d"/><stop offset="1" stop-color="#c4a538"/></linearGradient><g fill="none" fill-rule="evenodd"><g transform="translate(7.274 .623)"><ellipse cx="6.791" cy="5.6" fill="url(#a)" rx="6.791" ry="5.6"/><path d="m6.79070508 11.1990394c3.75040282 0 6.79070512-2.50699034 6.79070512-5.59951969 0-3.09252934-3.0403023-5.59951971-6.79070512-5.59951971 2.73103621.79678013 4.44557212 2.79975986 4.44557212 5.59951971 0 2.79975986-1.1549232 4.46878879-4.44557212 5.59951969z" fill="#000" fill-opacity=".1"/><path d="m4.99047497 10.9903471 2.92011603.1291545c-.43723764.4609865-.533047 1.0166215-.06666408 1.6819796l-3.00562612-.3323627c.05407002-.5629126.38090952-.5047163.42274053-.7292647.04691246-.2518256-.30444994-.4464776-.27056636-.7495067z" fill="url(#b)"/><path d="m4.99047497 10.9903471c.18658521.0082525 1.15995722.051304 2.92011603.1291545-.43723764.4609865-.533047 1.0166215-.06666408 1.6819796-.33610086-.0371661-.58817651-.0650406-.75622694-.0836237-.32028722-.2306773.95670208-1.5045353-2.09722501-1.7275104z" fill="#000" fill-opacity=".1"/><path d="m3.69745892 12.2009222 9.12526638 1.026836-.1455034 1.593673c-2.88737796 1.0432871-4.95104056 3.8085156-4.95104056 7.0557384 0 .9500658.17665334 1.8588719.49890528 2.6953638l-2.0614661-.000315z" fill="url(#b)"/><path d="m3.57886103 12.2009222 9.24386427 1.026836-.1465111 1.5940371c-.5562629.2010833-1.081944.4660801-1.5681754.7861225l.1665352-2.1877557z" fill="#000" fill-opacity=".1"/><path d="m3.19011566 12.6921053 9.96124494-.2416375z" fill="url(#b)" transform="matrix(.99026807 .1391731 -.1391731 .99026807 1.829055 -1.014704)"/><path d="m11.2740621 13.0617268 1.8513463-.0449095-1.8012007.043693c.1396768-.0033882.1029509-.0024973-.0501456.0012165z" fill="#000" fill-opacity=".1" transform="matrix(.99026807 .1391731 -.1391731 .99026807 1.933547 -1.571007)"/></g><g transform="translate(5 21)"><path d="m10 1.50059781c0 2.4539543 1.1785485 4.63264384 3.0005068 6.00092994l-.0005068.49907006h-13v-8l10.1501485-.00059781c-.0984606.48485022-.1501485.98668784-.1501485 1.50059781z" fill="#4e9438"/><path d="m6.51149456.53620828 3.60867714 2.3088644c.1220969.67460204.334422 1.31780096.6240253 1.91664671l-4.23270244 2.70326795-5.44407617-3.46160203z" fill="#fedf00"/><path d="m4.66105987 3.35806132c1.53791978-.13324114 2.75164714.26289606 4.03646323 1.31569796l-.01509625-.01279489c-.28312447.93694845-1.15310398 1.6191785-2.18242685 1.6191785-1.25895798 0-2.27954508-1.0205871-2.27954508-2.27954508 0-.20875579.0280611-.41095756.08061707-.60303908l.08514449-.01051489zm1.83894013-1.63700859c1.25895798 0 2.27954508 1.02058709 2.27954508 2.27954508 0 .11435535-.00842055.22674397-.02467543.33657965l-.10395198-.0828132c-1.33925887-1.02185503-2.64657986-1.36971894-4.30152169-1.16505227l.06376904-.00744043c.35332814-.80140038 1.15475197-1.36081883 2.08683498-1.36081883z" fill="#002776" opacity=".925"/><path d="m4.41790528 3.08113265c1.62262257-.1867301 2.91228747.16551798 4.23301239 1.17323161.04462054.03531.07808595.0617925.10039622.0794475-.01967594.11253342-.06496415.33080319-.07054884.32624964-1.27862057-1.04253941-2.48847344-1.43466179-4.01970518-1.30200008l-.27484339.02898252-.08813517.01089967c.06470229-.2094603.10464362-.31506392.11982397-.31681086z" fill="#fff" fill-rule="nonzero"/></g><rect height="15" rx="7.5" width="15" x="15" y="15"/><g transform="translate(16 16)"><path d="m3.77530825 11.9405168c-.6511818-1.0271852-1.14547749-2.08650536-1.20356193-3.2351745-.57974504.23053307-1.0300614.59609026-1.04014607 1.4209112.29752477.9365259 1.87752495 1.7359764 2.243708 1.8142633zm3.84965205.4043968c-1.59182498-.6661337-2.998922-2.1763623-4.44291378-3.51800416-.17467228-.14334366.18523585 2.00012416 1.85167411 3.63447716.88008612.1276231 1.76777564.3327003 2.59123967-.116473z" fill="#f56e14"/><path d="m7.6249603 12.3449136c-.26908389-.1031367-.62907131-.2981975-1.07996226-.5851825-.61729814.1335562-1.30913317.1501738-2.08944646.0477006.07972839.1537194.27245141.3717044.57816905.6539549.88008612.1276231 1.76777564.3327003 2.59123967-.116473z" fill="#000" opacity=".25"/><path d="m2.50488177 8.23354602.1337291-2.02198404c-.92819513-.4453819-1.73935891-1.00224704-2.29154747-1.72044886-.67066221 1.95325202-.20334914 3.5998191.64461288 5.13271141.37121057-.72981411.79430357-1.419861 1.51320549-1.39027851zm.60461979-1.71051274c2.97766661 1.32572249 6.00132167 2.11878351 9.15158354 1.60279721-.5002425 1.34122426-1.2067772 2.92156181-3.52022115 3.94556851-3.23122754-.7897751-3.76224739-3.14247605-5.75202844-3.86125221.01091789-.54141716.08069742-1.17155642.12066605-1.68711351z" fill="#f56e14"/><path d="m10.9960736 8.26823626c.316351-.03048865.9455811-.09008577 1.2650115-.14240577-.5002425 1.34122426-1.2067772 2.92156181-3.52022115 3.94556851-.46981043-.1148308-1.23567225-.3850305-1.54577801-.5886155 2.42684333-.7978451 3.62419136-2.90928317 3.80098766-3.21454724z" fill="#000" opacity=".25"/><path d="m3.30725639 5.94196411c2.12456757 1.21619551 8.17076661 2.51655224 9.16660691 1.17579719.1265421-.66367923.3528115-1.91853317-.4607125-3.19329166-3.25295736-1.63079105-5.3373151.56390841-7.80322297-.07699138-.58282164.66082203-.89123053 1.35798822-.90267144 2.09448585z" fill="#f56e14"/><path d="m11.2394971 7.63692585c.6338597-.04993457 1.0598243-.28416909 1.2343662-.51916455.1265421-.66367923.3528115-1.91853317-.4607125-3.19329166-.1397005-.07003542-.2772456-.13301537-.4127583-.18946744.5377663 1.35520394.122685 2.93222068-.3608954 3.90192365z" fill="#000" opacity=".25"/><path d="m2.77233997 5.60496677c.24482609-.6926756.49023084-1.3849969.93610373-1.95458458-.59667731-.99795835-.22643229-1.98058881 0-2.96549902-.91268812.28947212-2.0957704 1.10244132-3.07856538 2.96549902.28144006.85445223 1.02884284 1.49038813 2.14246165 1.95458458zm8.81009343-2.56117979c-.3518012-.53540579-.6653375-.93481977-.9406091-1.19824194-.2752716-.26342216-.73647917-.60540239-1.38362281-1.02594066-1.72749645.00513317-3.29475218.94911077-4.79448978 2.64054446 2.24634667.14403541 4.87621922-1.5137779 7.11872169-.41636186z" fill="#f56e14"/><path d="m11.5824334 3.04378698c-.3518012-.53540579-.6653375-.93481977-.9406091-1.19824194-.2752716-.26342216-.73647917-.60540234-1.38362281-1.02594051.95846411.80028396 1.58739131 1.48207176 1.88678171 2.0453634.1472834.04901001.2931686.10821179.4374502.17881905z" fill="#000" opacity=".25"/><path d="m4.34231625.40197593c.04806704.26475132-.70294642 1.91405606-.23268524 2.64181105 1.08283562-1.31580147 2.39749943-2.32799598 4.15005148-2.65924337-1.20681039-.43145491-2.48522304-.53810532-3.91736624.01743232z" fill="#f56e14"/></g></g></svg>