<svg xmlns="http://www.w3.org/2000/svg" xmlns:xlink="http://www.w3.org/1999/xlink" width="48" height="52" viewBox="0 0 48 52"><defs><path id="a" d="M10.2202858,49.9349257 C10.2990374,41.6089564 10.3384132,36.1692068 10.3384132,33.6156766 C10.3384132,31.0621465 10.176828,26.9540037 9.85365765,21.2912482 L8.2241567,25.1160522 C7.01125281,25.3258129 5.41848163,24.9509062 3.44584315,23.9913321 C1.52651922,23.0576924 0.387279465,22.0785814 0.0281238815,21.053999 L0,20.9685118 L4.72526396,9.16007698 C5.53354862,7.00608415 6.66054046,5.6140616 8.10623945,4.98400935 L16.3835008,1.36290579 L17.7009394,0 C20.0542672,0.521537936 22.154146,0.782865363 24.0005758,0.783982281 C25.8380118,0.785093757 27.9375067,0.523766331 30.2990606,0 L31.6139292,1.36290579 L39.7758433,4.9345938 C41.2783083,5.53937373 42.4446058,6.94786812 43.274736,9.16007698 L48,20.9685118 C47.6754097,22.0241513 46.5267953,23.031758 44.5541569,23.9913321 C42.5815184,24.9509062 40.9887472,25.3258129 39.7758433,25.1160522 L38.1463424,21.2912482 C37.823172,26.7575783 37.6615868,30.8657211 37.6615868,33.6156766 C37.6615868,36.3656321 37.7013266,41.8053818 37.7808063,49.9349257 C37.2455989,50.399355 30.6230725,51 24.000546,51 C17.3780196,51 10.7554932,50.399355 10.2202858,49.9349257 Z"/><path id="c" d="M4.99752786,2.63004094 L10.4727918,12.883959 C10.1482015,13.7307304 8.24958715,14.9602924 6.27694867,15.7300059 C4.30431019,16.4997193 2.71153901,16.8004473 1.49863512,16.6321897 L0,13.2079258 L0.100797365,11.9872144 L0.206025452,10.8133573 L0.27863902,10.056816 L0.391251641,8.96104938 L0.468788233,8.25656846 L0.548294034,7.57291168 L0.629769044,6.91007902 L0.755673826,5.95487528 L0.886009329,5.04652584 L0.975361176,4.46698971 L1.06668223,3.90827771 L1.1599725,3.37038984 L1.25523197,2.8533261 L1.35246065,2.35708649 L1.45165855,1.88167102 L1.55282565,1.42707967 L1.65596196,0.993312459 C1.67331545,0.922753268 1.69075098,0.853061749 1.70826857,0.784237902 L1.81435869,0.381706885 L1.92241803,0 C3.22232553,0.550612594 4.24723453,1.02619899 4.99752786,2.63004094 Z"/><path id="d" d="M4.99752786,2.63086002 L10.4727918,12.8879715 C10.1482015,13.7350066 8.24958715,14.9649515 6.27694867,15.7349047 C4.30431019,16.5048579 2.71153901,16.8056795 1.49863512,16.6373695 L0,13.2120392 L0.100797365,11.9909476 L0.206025452,10.8167249 L0.27863902,10.059948 L0.391251641,8.96384015 L0.468788233,8.25913983 L0.548294034,7.57527013 L0.629769044,6.91223105 L0.755673826,5.95672983 L0.886009329,5.04809749 L0.975361176,4.46838088 L1.06668223,3.90949487 L1.1599725,3.37143949 L1.25523197,2.85421472 L1.35246065,2.35782057 L1.45165855,1.88225703 L1.55282565,1.42752411 L1.65596196,0.99362181 C1.67331545,0.923040644 1.69075098,0.853327421 1.70826857,0.78448214 L1.81435869,0.381825762 L1.92241803,0 C3.22232553,0.550784073 4.24723453,1.02651858 4.99752786,2.63086002 Z"/><path id="e" d="M0,0 L15.4055786,0 L15.4055786,1.5 C12.8379822,2.22019064 10.2703857,2.58028596 7.70278931,2.58028596 C5.13519287,2.58028596 2.56759644,2.22019064 0,1.5 L0,0 Z"/><path id="g" d="M0,0 C0.559632905,0.454083038 1.11926581,0.681124557 1.67889872,0.681124557 C2.23853162,0.681124557 2.79816453,0.454083038 3.35779743,0 C3.91743034,0.454083038 4.47706324,0.681124557 5.03669615,0.681124557 C5.59632905,0.681124557 6.15596196,0.454083038 6.71559487,0 C6.71559487,0.454083038 6.71559487,0.953929099 6.71559487,1.49953818 C6.71559487,4.47926993 5.59632905,6.47752202 3.35779743,7.49429443 C1.11926581,6.47752202 0,4.47926993 0,1.49953818 C0,0.871477288 0,0.371631226 0,0 Z"/></defs><g fill="none" fill-rule="evenodd"><g transform="translate(0 .5)"><mask id="b" fill="#fff"><use xlink:href="#a"/></mask><use xlink:href="#a" fill="#7E1A2A"/><path fill="#FEA34D" d="M18.8573583,4.23522456 L18.8573583,4.77392085 C15.6213569,4.72254877 13.0763534,4.69474135 11.2223479,4.69049857 L10.2796009,4.69052133 C8.67686731,4.69484752 7.7651317,4.72273837 7.54439403,4.77419387 C7.06278458,4.88646042 6.08582435,5.40110335 4.61351333,6.31812266 L4.5729062,5.87252143 C6.04676185,4.91023209 7.00204695,4.38338568 7.4387615,4.2919822 C7.68831267,4.23975164 9.03810364,4.21118941 11.4881344,4.20629552 L13.2147178,4.20640987 C14.7798404,4.2092222 16.6607206,4.2188271 18.8573583,4.23522456 Z M18.8573583,3.39652827 L18.8573583,3.93522456 L8.420145,3.93522456 C7.97249633,3.91521301 7.55455974,3.96258222 7.16633522,4.07733218 C6.7781107,4.19208215 5.89738356,4.59842663 4.5241538,5.29636562 L4.48530271,4.91476873 C5.9145626,4.05993676 6.76814757,3.60515717 7.04605761,3.55042995 C7.32396765,3.49570272 7.76979779,3.44440217 8.38354804,3.39652827 L18.8573583,3.39652827 Z" mask="url(#b)" transform="rotate(-24 11.671 4.857)"/><path fill="#FEA34D" d="M42.8625711,4.10240443 L42.8625711,4.64110072 C35.9986086,4.46126044 32.1799894,4.49472895 31.4067135,4.74150626 C30.6334376,4.98828357 29.9199834,5.27707625 29.266351,5.60788431 L29.2798709,5.35111012 C30.0567596,4.73578041 30.849023,4.34544862 31.6566611,4.18011473 C32.1053489,4.08826257 33.4576371,4.0394445 35.7135257,4.03366052 L36.5646812,4.03343736 C38.246153,4.03652742 40.3454497,4.05951644 42.8625711,4.10240443 Z M42.8625711,3.26370814 L42.8625711,3.80240443 C40.1691854,3.7563647 37.9525006,3.73209654 36.2125166,3.72959997 L35.6501775,3.72957413 C33.4714435,3.7326962 32.1401777,3.7745233 31.65638,3.85505543 C30.7694176,4.00269767 29.9802125,4.31091468 29.2887645,4.77970647 L29.2849552,4.32391907 C30.1795707,3.65371215 31.0125358,3.31862148 31.7838507,3.31864706 L32.1491628,3.31797638 C32.1807307,3.31788638 32.2137414,3.31778734 32.2481949,3.31767923 L32.4722289,3.31692193 C33.9605359,3.31158176 37.4239833,3.29384383 42.8625711,3.26370814 Z" mask="url(#b)" transform="scale(-1 1) rotate(-24 0 174.106)"/><g mask="url(#b)"><g transform="translate(-1.401 9.24)"><use xlink:href="#c" fill="#7E1A2A" transform="translate(39.678 .005)"/><use xlink:href="#d" fill="#7E1A2A" transform="matrix(-1 0 0 1 11.124 0)"/><path fill="#FEA34D" d="M40.491619,14.8224393 C42.2774546,14.5787182 43.8930437,14.0886382 45.3383863,13.3521993 C46.783729,12.6157605 48.0588252,11.6329627 49.163675,10.403806 L50.3175892,12.8982968 L41.6455332,17.31693 L40.491619,14.8224393 Z M10.3103279,14.8224393 C8.52449235,14.5787182 6.90890324,14.0886382 5.46356057,13.3521993 C4.01821791,12.6157605 2.74312168,11.6329627 1.63827189,10.403806 L0.484357752,12.8982968 L9.15641375,17.31693 L10.3103279,14.8224393 Z"/><path fill="#7E1A2A" d="M-0.00681023381,12.8026751 C1.75790647,13.732425 3.55534289,14.0831691 5.38549902,13.8549074 C6.02689147,13.7749113 6.78835489,13.7312249 8.19880474,13.3262385 C8.641413,13.1991512 9.47867708,12.9062483 10.710597,12.4475297 L10.7680556,12.9284924 C8.15036694,13.8053678 6.3625105,14.2882817 5.40448633,14.3772341 C3.49587403,14.5544483 1.61254649,14.1335937 -0.245496284,13.11467 L-0.00681023381,12.8026751 Z" transform="rotate(30 5.261 13.432)"/><path fill="#7E1A2A" d="M39.9824588,12.9523511 C41.7471755,13.882101 43.544612,14.2328451 45.3747681,14.0045834 C46.0161605,13.9245873 46.777624,13.8809009 48.1880738,13.4759146 C48.6306821,13.3488272 49.4679462,13.0559243 50.6998661,12.5972058 L50.7573247,13.0781684 C48.139636,13.9550438 46.3517796,14.4379577 45.3937554,14.5269101 C43.4851431,14.7041244 41.6018156,14.2832697 39.7437728,13.2643461 L39.9824588,12.9523511 Z" transform="scale(-1 1) rotate(30 0 -155.296)"/></g></g><g mask="url(#b)"><g transform="translate(16.297 -4.4)"><path fill="#490E17" d="M0.952789307,5.90072384 L14.4527893,5.90072384 C11.8888804,9.12399044 9.63888041,10.7356237 7.70278931,10.7356237 C5.7666982,10.7356237 3.5166982,9.12399044 0.952789307,5.90072384 Z"/><g transform="translate(0 4.282)"><mask id="f" fill="#fff"><use xlink:href="#e"/></mask><use xlink:href="#e" fill="#5B111D"/><path fill="#D38439" d="M1.09186756,0.854194282 C4.00453725,1.40188122 6.19081555,1.67572469 7.65070245,1.67572469 C9.11058936,1.67572469 11.3315922,1.40188122 14.3137111,0.854194282 L14.2201343,2.768124 L1.19342137,2.768124 L1.09186756,0.854194282 Z" mask="url(#f)"/><path fill="#5B111D" d="M1.09186756,1.15764073 C4.00453725,1.70532767 6.19081555,1.97917114 7.65070245,1.97917114 C9.11058936,1.97917114 11.3315922,1.70532767 14.3137111,1.15764073 L14.2201343,3.07157045 L1.19342137,3.07157045 L1.09186756,1.15764073 Z" mask="url(#f)"/></g><path fill="#6F1524" fill-rule="nonzero" d="M7.70278931,0 C11.9430537,0 15.3804671,2.35050506 15.3804671,5.25 C15.3804671,6.5644377 14.197081,8.02545777 11.8303089,9.6330602 L11.4003589,9.91827636 C11.3266532,9.96606599 11.2519238,10.0139824 11.1761707,10.0620257 L10.7093679,10.3518067 C10.6295201,10.4003571 10.5486485,10.4490343 10.4667533,10.4978384 L9.96309764,10.7921842 C9.79111766,10.8908067 9.61504292,10.9899364 9.43487341,11.0895733 L8.88208061,11.3900057 C8.7879011,11.4403313 8.69269789,11.4907838 8.596471,11.541363 L8.00682535,11.8463602 C7.90650369,11.8974467 7.80515834,11.9486599 7.70278931,12 L7.10085937,11.6934812 C6.90431082,11.5918155 6.71185703,11.490657 6.523498,11.3900057 L5.9707052,11.0895733 C5.7905357,10.9899364 5.61446095,10.8908067 5.44248097,10.7921842 L4.93882531,10.4978384 L4.45973822,10.2065358 C4.30413728,10.1099421 4.1526311,10.0138556 4.00521969,9.91827636 L3.57526974,9.6330602 C1.2084976,8.02545777 0.0251115347,6.5644377 0.0251115347,5.25 C0.0251115347,2.35050506 3.46252496,0 7.70278931,0 Z M7.70278931,1.5 C4.19655013,1.5 1.52511153,3.32673109 1.52511153,5.25 C1.52511153,5.87627864 2.21031029,6.75802077 3.60654807,7.81368277 L3.94139055,8.0603473 C3.99930521,8.10196024 4.05827465,8.14382118 4.11830033,8.18592548 L4.49114111,8.44143446 C4.55539764,8.48449363 4.62071336,8.52778689 4.68708974,8.57130959 L5.0980876,8.83516196 L5.53461172,9.10429821 C5.60949685,9.14958221 5.68544852,9.19507708 5.76246819,9.2407782 L6.23741403,9.51742274 L6.73806257,9.79879442 L7.26448437,10.0846706 L7.70288847,10.31475 L8.14123361,10.0845961 L8.66791412,9.79857453 C8.75354225,9.75127385 8.83809539,9.70416104 8.92157501,9.65724078 L9.40958224,9.37806675 C9.56796509,9.28580365 9.72206563,9.19434787 9.87189564,9.10373656 L10.3085859,8.83447326 L10.7197237,8.57049989 C10.7861212,8.52695755 10.851457,8.48364491 10.9157325,8.44056663 L11.288674,8.18494635 L11.6362398,7.9351736 L11.9585005,7.69147142 L12.2555268,7.45406286 C13.2984465,6.59537567 13.8338974,5.86810763 13.8775585,5.32173663 L13.8804671,5.25 C13.8804671,3.32673109 11.2090285,1.5 7.70278931,1.5 Z"/><path fill="#FEA34D" fill-rule="nonzero" d="M7.64620058,0.368289393 C12.0395388,0.368289393 14.4527893,2.71879446 14.4527893,5.61828939 C14.4527893,6.9327271 13.9010603,7.23031694 11.9227239,8.73697333 L11.4772527,9.02218949 C11.4008862,9.06997912 11.3234591,9.11789555 11.2449713,9.16593879 L10.7613169,9.4557198 C10.6785865,9.50427023 10.5947955,9.55294747 10.5099439,9.60175151 L9.9881062,9.89609737 C9.80991773,9.99471987 9.62748667,10.0938496 9.44081304,10.1934865 L8.86806438,10.4939188 C8.77048498,10.5442444 8.67184493,10.5946969 8.57214424,10.6452762 L7.96121234,10.9502733 C7.85726907,11.0013598 6.91208881,11.5262334 6.80602424,11.5775735 C6.65593586,11.5038074 6.54336958,11.4484829 6.46832539,11.4115999 C6.40477854,11.3803676 6.58951706,11.1756324 7.02254093,10.7973943 C6.81889696,10.6957286 6.61949558,10.5945701 6.42433678,10.4939188 L5.85158812,10.1934865 C5.66491449,10.0938496 5.48248343,9.99471987 5.30429496,9.89609737 L4.7824573,9.60175151 L4.28607513,9.31044889 C4.12485699,9.21385522 3.96788143,9.11776875 3.81514845,9.02218949 L3.36967728,8.73697333 C1.66883153,7.35989458 0.952789307,6.9327271 0.952789307,5.61828939 C0.952789307,2.71879446 3.25286241,0.368289393 7.64620058,0.368289393 Z M7.64620058,1.86828939 C4.01338594,1.86828939 1.24550823,3.69502048 1.24550823,5.61828939 C1.24550823,6.24456803 1.95544271,7.12631016 3.40208476,8.18197217 L3.74901507,8.4286367 C3.80902046,8.47024963 3.8701187,8.51211057 3.93231131,8.55421487 L4.31861166,8.80972385 C4.38518787,8.85278303 4.45286149,8.89607628 4.52163405,8.93959898 L4.94746896,9.20345135 L5.39975164,9.4725876 C5.47734013,9.5178716 5.55603365,9.56336648 5.63583374,9.6090676 L6.12792516,9.88571213 L6.64664714,10.1670838 L7.1920728,10.45296 L7.64630332,10.6830394 L8.10047275,10.4528855 L8.64616646,10.1668639 C8.73488577,10.1195632 8.82249129,10.0724504 8.90898453,10.0255302 L9.41460886,9.74635614 C9.57870933,9.65409304 9.73837291,9.56263726 9.8936118,9.47202595 L10.3460666,9.20276265 L10.7720465,8.93878928 C10.8408409,8.89524694 10.9085353,8.8519343 10.9751312,8.80885602 L11.361536,8.55323574 L11.7216489,8.30346299 L12.0555433,8.05976082 L12.3632922,7.82235225 C13.4438614,6.96366506 13.9986421,6.23639703 14.0438794,5.69002602 L14.0468929,5.61828939 C14.0468929,3.69502048 11.2790152,1.86828939 7.64620058,1.86828939 Z"/><path fill="#6F1524" fill-rule="nonzero" d="M7.70278931,0 C11.9430537,0 14.2722211,2.35050506 14.2722211,5.25 C14.2722211,6.5644377 13.7397156,6.86202755 11.8303089,8.36868394 L11.4003589,8.6539001 C11.3266532,8.70168973 11.2519238,8.74960616 11.1761707,8.79764939 L10.7093679,9.0874304 C10.6295201,9.13598084 10.5486485,9.18465808 10.4667533,9.23346212 L9.96309764,9.52780798 C9.79111766,9.62643047 9.61504292,9.72556017 9.43487341,9.82519707 L8.88208061,10.1256294 C8.7879011,10.1759551 8.69269789,10.2264075 8.596471,10.2769868 L8.00682535,10.5819839 C7.90650369,10.6330704 7.80515834,10.6842837 7.70278931,10.7356237 L7.10085937,10.429105 C6.90431082,10.3274392 6.71185703,10.2262807 6.523498,10.1256294 L5.9707052,9.82519707 C5.7905357,9.72556017 5.61446095,9.62643047 5.44248097,9.52780798 L4.93882531,9.23346212 L4.45973822,8.94215949 C4.30413728,8.84556582 4.1526311,8.74947936 4.00521969,8.6539001 L3.57526974,8.36868394 C1.9336853,6.99160519 1.2425916,6.5644377 1.2425916,5.25 C1.2425916,2.35050506 3.46252496,0 7.70278931,0 Z M7.70278931,1.5 C4.19655013,1.5 1.52511153,3.32673109 1.52511153,5.25 C1.52511153,5.87627864 2.21031029,6.75802077 3.60654807,7.81368277 L3.94139055,8.0603473 C3.99930521,8.10196024 4.05827465,8.14382118 4.11830033,8.18592548 L4.49114111,8.44143446 C4.55539764,8.48449363 4.62071336,8.52778689 4.68708974,8.57130959 L5.0980876,8.83516196 L5.53461172,9.10429821 C5.60949685,9.14958221 5.68544852,9.19507708 5.76246819,9.2407782 L6.23741403,9.51742274 L6.73806257,9.79879442 L7.26448437,10.0846706 L7.70288847,10.31475 L8.14123361,10.0845961 L8.66791412,9.79857453 C8.75354225,9.75127385 8.83809539,9.70416104 8.92157501,9.65724078 L9.40958224,9.37806675 C9.56796509,9.28580365 9.72206563,9.19434787 9.87189564,9.10373656 L10.3085859,8.83447326 L10.7197237,8.57049989 C10.7861212,8.52695755 10.851457,8.48364491 10.9157325,8.44056663 L11.288674,8.18494635 L11.6362398,7.9351736 L11.9585005,7.69147142 L12.2555268,7.45406286 C13.2984465,6.59537567 13.8338974,5.86810763 13.8775585,5.32173663 L13.8804671,5.25 C13.8804671,3.32673109 11.2090285,1.5 7.70278931,1.5 Z"/><polygon fill="#6F1524" fill-rule="nonzero" points="7.704 10.321 6.071 11.154 6.462 11.364 7.868 10.653"/></g></g><g mask="url(#b)"><g transform="translate(15.854 -4.6)"><path fill="#55111C" d="M1.39600367,6.1 L14.8960037,6.1 C12.3320948,9.3232666 10.0820948,10.9348999 8.14600367,10.9348999 C6.20991257,10.9348999 3.95991257,9.3232666 1.39600367,6.1 Z"/><path fill="#FEA34D" d="M4.64600367,9.32434499 L11.0906495,9.32434499 C11.0636434,10.3980483 10.0820948,10.9348999 8.14600367,10.9348999 C6.20991257,10.9348999 5.0432459,10.3980483 4.64600367,9.32434499 Z"/><path fill="#6A1523" d="M0.443214363,4.48101775 L15.848793,4.48101775 L15.848793,5.98101775 C13.2811965,6.70120839 10.7136001,7.06130371 8.14600367,7.06130371 C5.57840723,7.06130371 3.0108108,6.70120839 0.443214363,5.98101775 L0.443214363,4.48101775 Z"/><g transform="translate(0 .2)"><path fill="#7E1A2A" fill-rule="nonzero" d="M8.14600367,0 C12.386268,0 15.8236814,2.35050506 15.8236814,5.25 C15.8236814,6.5644377 14.6402954,8.02545777 12.2735232,9.6330602 L11.8435733,9.91827636 C11.7698676,9.96606599 11.6951382,10.0139824 11.6193851,10.0620257 L11.1525823,10.3518067 C11.0727344,10.4003571 10.9918629,10.4490343 10.9099677,10.4978384 L10.406312,10.7921842 C10.234332,10.8908067 10.0582573,10.9899364 9.87808778,11.0895733 L9.32529498,11.3900057 C9.23111546,11.4403313 9.13591226,11.4907838 9.03968536,11.541363 L8.45003971,11.8463602 C8.34971805,11.8974467 8.24837271,11.9486599 8.14600367,12 L7.54407373,11.6934812 C7.34752518,11.5918155 7.15507139,11.490657 6.96671236,11.3900057 L6.41391956,11.0895733 C6.23375006,10.9899364 6.05767532,10.8908067 5.88569533,10.7921842 L5.38203967,10.4978384 L4.90295258,10.2065358 C4.74735164,10.1099421 4.59584547,10.0138556 4.44843405,9.91827636 L4.0184841,9.6330602 C1.65171196,8.02545777 0.468325898,6.5644377 0.468325898,5.25 C0.468325898,2.35050506 3.90573932,0 8.14600367,0 Z M8.14600367,1.5 C4.6397645,1.5 1.9683259,3.32673109 1.9683259,5.25 C1.9683259,5.87627864 2.65352466,6.75802077 4.04976243,7.81368277 L4.38460491,8.0603473 C4.44251957,8.10196024 4.50148901,8.14382118 4.56151469,8.18592548 L4.93435547,8.44143446 C4.99861201,8.48449363 5.06392773,8.52778689 5.1303041,8.57130959 L5.54130196,8.83516196 L5.97782609,9.10429821 C6.05271122,9.14958221 6.12866288,9.19507708 6.20568255,9.2407782 L6.6806284,9.51742274 L7.18127693,9.79879442 L7.70769873,10.0846706 L8.14610283,10.31475 L8.58444797,10.0845961 L9.11112848,9.79857453 C9.19675661,9.75127385 9.28130975,9.70416104 9.36478937,9.65724078 L9.85279661,9.37806675 C10.0111795,9.28580365 10.16528,9.19434787 10.31511,9.10373656 L10.7518003,8.83447326 L11.162938,8.57049989 C11.2293355,8.52695755 11.2946713,8.48364491 11.3589468,8.44056663 L11.7318884,8.18494635 L12.0794542,7.9351736 L12.4017149,7.69147142 L12.6987412,7.45406286 C13.7416609,6.59537567 14.2771118,5.86810763 14.3207729,5.32173663 L14.3236814,5.25 C14.3236814,3.32673109 11.6522428,1.5 8.14600367,1.5 Z"/><g fill="#FEA34D" transform="translate(0 4.053)"><path d="M0.491363234,2.56203861 C0.788831612,3.23048824 1.04820181,3.67973061 1.26947384,3.90976572 C1.74343936,4.40250178 2.5135037,4.66082643 3.3017235,4.83256898 C4.05594124,4.99690293 4.82159704,5.08515088 5.58564962,5.08515088 C7.70737152,5.08515088 9.63255442,5.01785223 11.3611983,4.88325492 L11.3611983,5.18311481 C9.6646675,5.31771212 7.73934113,5.38501077 5.5852192,5.38501077 C4.77344804,5.38501077 3.9746265,5.2845358 3.19783926,5.09759252 C2.3703075,4.89843696 1.57606979,4.59605254 1.09747455,4.04055616 C0.921285255,3.83605661 0.674337328,3.3691467 0.356630769,2.63982643 L0.491363234,2.56203861 Z" transform="rotate(30 5.859 3.974)"/><path d="M0.103309258,2.92326943 C0.400777636,3.59171906 0.660147838,4.04096143 0.881419865,4.27099654 C1.35538538,4.7637326 2.12544972,5.02205725 2.91366953,5.1937998 C3.66788727,5.35813375 4.43354306,5.4463817 5.19759564,5.4463817 C7.31931754,5.4463817 9.24450044,5.37908305 10.9731443,5.24448574 L10.9731443,5.54434564 C9.27661352,5.67894294 7.35128715,5.74624159 5.19716522,5.74624159 C4.38539406,5.74624159 3.58657252,5.64576662 2.80978528,5.45882335 C1.98225352,5.25966778 1.18801581,4.95728336 0.709420571,4.40178699 C0.533231278,4.19728743 0.286283352,3.73037752 -0.0314232072,3.00105726 L0.103309258,2.92326943 Z" transform="rotate(30 5.47 4.335)"/></g><g fill="#FEA34D" transform="matrix(-1 0 0 1 16.32 4.053)"><path d="M0.491363234,2.56203861 C0.788831612,3.23048824 1.04820181,3.67973061 1.26947384,3.90976572 C1.74343936,4.40250178 2.5135037,4.66082643 3.3017235,4.83256898 C4.05594124,4.99690293 4.82159704,5.08515088 5.58564962,5.08515088 C7.70737152,5.08515088 9.63255442,5.01785223 11.3611983,4.88325492 L11.3611983,5.18311481 C9.6646675,5.31771212 7.73934113,5.38501077 5.5852192,5.38501077 C4.77344804,5.38501077 3.9746265,5.2845358 3.19783926,5.09759252 C2.3703075,4.89843696 1.57606979,4.59605254 1.09747455,4.04055616 C0.921285255,3.83605661 0.674337328,3.3691467 0.356630769,2.63982643 L0.491363234,2.56203861 Z" transform="rotate(30 5.859 3.974)"/><path d="M0.103309258,2.92326943 C0.400777636,3.59171906 0.660147838,4.04096143 0.881419865,4.27099654 C1.35538538,4.7637326 2.12544972,5.02205725 2.91366953,5.1937998 C3.66788727,5.35813375 4.43354306,5.4463817 5.19759564,5.4463817 C7.31931754,5.4463817 9.24450044,5.37908305 10.9731443,5.24448574 L10.9731443,5.54434564 C9.27661352,5.67894294 7.35128715,5.74624159 5.19716522,5.74624159 C4.38539406,5.74624159 3.58657252,5.64576662 2.80978528,5.45882335 C1.98225352,5.25966778 1.18801581,4.95728336 0.709420571,4.40178699 C0.533231278,4.19728743 0.286283352,3.73037752 -0.0314232072,3.00105726 L0.103309258,2.92326943 Z" transform="rotate(30 5.47 4.335)"/></g></g><path fill="#6B1624" fill-rule="nonzero" d="M8.14600367,0 C3.86903806,0 0.393325898,2.37669376 0.393325898,5.325 C0.393325898,6.86403422 1.96029151,8.58025418 5.09061632,10.4850405 L5.58453846,10.7795738 C5.92204204,10.9769232 6.27598926,11.1762623 6.64637624,11.3776035 L7.21428605,11.6811183 L7.80685256,11.9876453 C7.90766821,12.0389846 8.00951111,12.0904499 8.11238118,12.1420412 L8.72502589,11.8340047 L9.31239561,11.5289849 C9.79134549,11.2760563 10.2439911,11.0262606 10.6703921,10.7795738 L11.1694798,10.4850405 C14.3317158,8.58025418 15.8986814,6.86403422 15.8986814,5.325 C15.8986814,2.37669376 12.4229693,0 8.14600367,0 Z M8.14600367,0.05 C12.3495668,0.05 15.7486814,2.37431636 15.7486814,5.225 C15.7486814,6.39858092 14.7711906,7.70392434 12.8143977,9.13531469 L12.4234346,9.41393039 C12.3562358,9.46062815 12.2880179,9.5074567 12.2187807,9.55441583 L11.7911265,9.83773611 L11.3390079,10.1241813 L10.862422,10.4137421 L10.3613659,10.7064093 C10.2758172,10.7554456 10.1892488,10.8046109 10.1016607,10.853905 L9.5638938,11.1512147 C9.38055875,11.2508323 9.19314413,11.3509639 9.00164943,11.4516078 L8.41492464,11.7550751 C8.31509698,11.8059087 8.21424918,11.85687 8.11238118,11.9079588 C7.90723199,11.8036959 7.70621984,11.6999642 7.50934878,11.5967652 L6.93116292,11.288768 C6.83687051,11.237702 6.74361438,11.1867697 6.65139505,11.1359711 L6.11052463,10.8327868 L5.59456159,10.5328234 L5.10353026,10.2360906 C4.6249729,9.94097639 4.18384961,9.65072279 3.7802699,9.36537383 L3.38920877,9.08166138 C1.49651632,7.67128989 0.543325898,6.3839015 0.543325898,5.225 C0.543325898,2.37431636 3.94244058,0.05 8.14600367,0.05 Z"/><rect width="7" height="2.141" fill="#7E1A2A" transform="translate(4.646 10.543)"/></g></g><g fill="#000" fill-opacity=".2" fill-rule="nonzero" mask="url(#b)"><g transform="translate(7.575 4.805)"><path d="M30.4841488,0.0719784231 L30.775386,0 L30.8846831,0.459108697 L30.9920046,0.943970623 C31.009727,1.02692716 31.027367,1.11095685 31.0449248,1.19605971 L31.1492842,1.71955547 L31.2516698,2.26880979 C31.2685696,2.36249884 31.2853872,2.45726125 31.3021226,2.55309707 L31.4015486,3.1409932 L31.4990025,3.75465321 L31.5944849,4.39407922 L31.6879965,5.05927336 L31.7795379,5.75023777 L31.9131577,6.83500827 L31.9997768,7.59040765 L32.0844282,8.37158474 L32.1671126,9.17854167 L32.2874525,10.4373189 L32.3652222,11.3087348 L32.4781933,12.6642104 L32.5510527,13.6000985 L32.6566614,15.0522924 L32.7906067,17.0788376 L32.8546382,18.1308092 L32.5551627,18.1485413 L32.4925849,17.1198586 L32.3952062,15.6232215 L32.2588155,13.7143048 L32.151611,12.3475756 L32.0401991,11.0365325 L31.9245818,9.78118215 L31.8451685,8.97522572 L31.7225472,7.81271175 L31.6384666,7.06865248 L31.5088473,5.99899365 L31.4201033,5.31684406 L31.3294951,4.65946183 L31.2370234,4.02684899 L31.1426887,3.41900751 L31.0464917,2.83593942 L30.9484331,2.2776467 L30.8485135,1.74413136 L30.7467335,1.2353954 L30.6430938,0.751440821 L30.5375951,0.292269626 L30.4841488,0.0719784231 Z" transform="matrix(-1 0 0 1 63.339 0)"/><path d="M0.2912372,0 L0.346132747,0.226335328 L0.454441985,0.698320373 L0.560775986,1.19605971 L0.665135431,1.71955547 L0.767521003,2.26880979 L0.867933384,2.84382478 L0.966373258,3.44460258 L1.11033611,4.39407922 L1.24986465,5.40153415 L1.34042132,6.10538448 L1.42900889,6.83500827 L1.55819968,7.97777385 L1.68296385,9.17854167 L1.76368186,10.0112806 L1.84243419,10.8698036 L1.95687852,12.2059379 L2.0669039,13.6000985 L2.13780032,14.5617792 L2.24046591,16.052666 L2.33871869,17.6015983 L2.37048939,18.1308092 L2.07101389,18.1485413 L1.97644473,16.6147944 L1.87766163,15.1367133 L1.77466675,13.7143048 L1.66746225,12.3475756 L1.5560503,11.0365325 L1.44043307,9.78118215 L1.36101971,8.97522572 L1.27973894,8.19402665 L1.1965914,7.43758695 L1.06837129,6.34935559 L0.980559634,5.65482306 L0.890883448,4.9850569 L0.799343379,4.34005911 L0.705940068,3.7198317 L0.610674156,3.12437667 L0.513546285,2.55369601 L0.414557097,2.00779173 L0.313707232,1.48666583 L0.210997334,0.990320312 L0.106428043,0.518757175 C0.0888449136,0.442228629 0.0711843367,0.366732765 0.0534463251,0.292269626 L0,0.0719784231 L0.2912372,0 Z"/></g></g></g><g transform="translate(27.808 11.744)"><mask id="h" fill="#fff"><use xlink:href="#g"/></mask><use xlink:href="#g" fill="#FFB800"/><rect width="6.716" height="3.91" y="3.585" fill="#A70028" mask="url(#h)"/><path fill="#222" fill-rule="nonzero" d="M6.71559487,0 L6.71559487,1.49953818 C6.71559487,4.47926993 5.59632905,6.47752202 3.35779743,7.49429443 C1.11926581,6.47752202 0,4.47926993 0,1.49953818 L0,0 C0.559632905,0.454083038 1.11926581,0.681124557 1.67889872,0.681124557 C2.23853162,0.681124557 2.79816453,0.454083038 3.35779743,0 C3.91743034,0.454083038 4.47706324,0.681124557 5.03669615,0.681124557 C5.59632905,0.681124557 6.15596196,0.454083038 6.71559487,0 Z M3.35792265,0.428641839 L3.26365378,0.495823077 C2.74503736,0.845044398 2.21571773,1.02349024 1.67889872,1.02349024 C1.24944351,1.02349024 0.824787902,0.909284902 0.406572259,0.68480145 L0.342365686,0.64844061 L0.342365686,1.49953818 C0.342365686,4.26843749 1.33052307,6.11405677 3.3161263,7.09571411 L3.35723792,7.11504369 L3.39946856,7.09571411 C5.324902,6.14380396 6.31242492,4.37949985 6.37050672,1.74871448 L6.37322918,1.49953818 L6.37279488,0.647755878 L6.30902261,0.68480145 C5.94308392,0.881224471 5.57221463,0.993215812 5.19751367,1.01814454 L5.03669615,1.02349024 C4.49987714,1.02349024 3.97055751,0.845044398 3.45194108,0.495823077 L3.35792265,0.428641839 Z"/></g></g></svg>